Coordinates
version=1
nRows=14
nColumns=33
inDegrees=yes

Units are S.I. units (second, meters, Newtons, ...)
Angles are in degrees.

endheader
time	ground_thorax_rot_x	ground_thorax_rot_y	ground_thorax_rot_z	ground_thorax_tx	ground_thorax_ty	ground_thorax_tz	clav_prot_r	clav_elev_r	scapula_abduction_r	scapula_elevation_r	scapula_upward_rot_r	scapula_winging_r	shoulder_elv_r	plane_of_elev_r	axial_rot_r	elbow_flexion_r	pro_sup_r	wrist_flex_r	wrist_dev_r	clav_prot_l	clav_elev_l	scapula_abduction_l	scapula_elevation_l	scapula_upward_rot_l	scapula_winging_l	shoulder_elv_l	plane_of_elev_l	axial_rot_l	elbow_flexion_l	pro_sup_l	wrist_flex_l	wrist_dev_l
      9.27000000	     23.32202827	     31.79476338	     47.29333542	   -111.02137012	    840.94506286	    -45.40681806	     13.20018850	     33.61854710	     26.20351100	     45.00000000	    -45.00000000	   2427.43638669	   -643.76044159	     20.72321947	   -153.61234492	   1437.66576296	   -204.03272442	     16.30032398	     14.30356104	     -4.07601961	    -45.00000000	    -44.65083109	     45.00000000	    -45.00000000	   4788.81991116	  -5319.46194192	     25.06991895	     24.69440912	    -11.31165188	    396.65953952	     13.83316387	    -21.98062009
      9.28000000	     23.17126635	     31.83651869	     47.64264808	   -110.74717932	    840.87698665	    -45.39009095	     13.24494065	     33.69337834	     26.31886574	     45.00000000	    -45.00000000	   2427.39564595	   -643.83467223	     20.75170456	   -153.81378548	   1437.95196467	   -203.63072269	     16.35052728	     14.16844188	     -3.60415294	    -45.00000000	    -44.56227942	     45.00000000	    -45.00000000	   4789.00740453	  -5319.44947898	     25.11664045	     24.39660594	    -11.19538571	    396.55747889	     14.13013358	    -21.98472841
      9.29000000	     23.27591643	     31.76333194	     47.45948837	   -110.41953920	    840.81722566	    -45.37337770	     13.19041124	     33.60333610	     26.24759110	     45.00000000	    -45.00000000	   2427.48660739	   -643.72370487	     20.76143989	   -153.71979509	   1437.74172389	   -203.13322523	     16.41217746	     14.31409035	     -4.11982699	    -45.00000000	    -44.56951045	     45.00000000	    -45.00000000	   4788.80511605	  -5319.54299825	     25.03250319	     24.52511987	    -11.16350027	    396.37009852	     13.82655275	    -21.98390746
      9.30000000	     26.89617946	     28.80281427	     41.93983353	   -110.67203540	    850.15930608	    -45.49734528	     12.83845475	     33.91673397	     26.45718038	     45.00000000	    -45.00000000	   2429.77248903	   -645.53794386	     21.27455062	   -158.73609950	   1437.95831138	   -203.23953486	     16.40722099	     14.06740163	     -6.69029104	    -45.00000000	    -40.78098035	     45.00000000	    -45.00000000	   4786.62543898	  -5319.86888298	     25.55838305	     27.37087818	    -11.03601968	    396.43054737	     13.78833675	    -21.80739563
      9.31000000	     26.76809872	     28.84225332	     42.17739959	   -110.25313707	    850.10435089	    -45.47989186	     12.44119999	     33.94810244	     26.65104955	     45.00000000	    -45.00000000	   2430.00413335	   -645.60921606	     20.92366473	   -159.35132749	   1438.09735122	   -202.93934422	     16.51634055	     13.88603462	     -5.94917400	    -45.00000000	    -40.88415479	     45.00000000	    -45.00000000	   4786.92303601	  -5320.02698992	     25.70262984	     26.97056443	    -10.89040063	    396.48931340	     13.93065517	    -21.88409038
      9.32000000	     26.68310124	     28.89279955	     42.29410070	   -109.77602122	    850.04754884	    -45.45535079	     12.72902173	     33.87747070	     26.41643766	     45.00000000	    -45.00000000	   2429.75230838	   -645.55250527	     21.39364678	   -159.21779510	   1438.01591378	   -202.47258728	     16.46644749	     14.16421616	     -6.59058554	    -45.00000000	    -40.84457238	     45.00000000	    -45.00000000	   4786.70071335	  -5319.91682200	     25.54799460	     27.23049843	    -10.89959361	    396.52205491	     13.78309929	    -21.86170103
      9.33000000	     26.80056397	     28.73651933	     42.13111801	   -109.24439914	    849.98637156	    -45.42386335	     12.60406185	     33.95580888	     26.65676370	     45.00000000	    -45.00000000	   2430.05351224	   -645.56555075	     21.09243186	   -159.46064321	   1437.98271693	   -202.19093728	     16.68751241	     13.88189281	     -6.07728656	    -45.00000000	    -40.79801958	     45.00000000	    -45.00000000	   4786.79332430	  -5320.04046318	     25.79285272	     27.25858972	    -10.85966992	    396.57883959	     13.97722742	    -21.85560308
      9.34000000	     26.73473949	     28.83550799	     42.30782788	   -108.65271446	    849.91759046	    -45.38634208	     12.63533780	     33.93245443	     26.59025832	     45.00000000	    -45.00000000	   2429.90774836	   -645.56865509	     21.34756282	   -159.52804986	   1438.09539516	   -201.81450622	     16.62280664	     14.06073471	     -6.38079406	    -45.00000000	    -40.77584427	     45.00000000	    -45.00000000	   4786.66826683	  -5319.98542029	     25.73082095	     27.41715879	    -10.95949962	    396.59108846	     13.89640793	    -21.82946225
      9.35000000	     26.63846860	     28.88787778	     42.44746519	   -107.99985057	    849.83939870	    -45.34488763	     12.75890348	     33.89856275	     26.55037654	     45.00000000	    -45.00000000	   2429.98640356	   -645.53711839	     21.35074906	   -159.65566421	   1438.09151337	   -201.54462527	     16.65119493	     14.04994979	     -6.32844923	    -45.00000000	    -40.87147030	     45.00000000	    -45.00000000	   4786.63924377	  -5319.99213036	     25.71740786	     27.54335446	    -10.93418784	    396.60585502	     13.94823884	    -21.79541324
      9.36000000	     26.58366048	     28.88561727	     42.54049629	   -107.28448681	    849.75078726	    -45.30207959	     12.71426299	     33.92623512	     26.67769165	     45.00000000	    -45.00000000	   2429.96670912	   -645.60722700	     21.37068039	   -159.77269549	   1438.11719305	   -201.32607951	     16.69411200	     14.07495030	     -6.37086825	    -45.00000000	    -40.84952004	     45.00000000	    -45.00000000	   4786.59126288	  -5319.97224138	     25.75508250	     27.65259425	    -10.92294404	    396.60402953	     13.93813536	    -21.78658468
      9.37000000	     26.46643148	     28.95681379	     42.75927830	   -106.50956876	    849.65244089	    -45.26103016	     12.79500456	     33.91496358	     26.75633554	     45.00000000	    -45.00000000	   2430.05816474	   -645.65767251	     21.28272770	   -159.91599894	   1438.16557366	   -201.15344712	     16.69906190	     14.04642411	     -6.38198257	    -45.00000000	    -40.92001326	     45.00000000	    -45.00000000	   4786.57329339	  -5319.95208817	     25.71565246	     27.77935291	    -10.91765050	    396.62127339	     13.99750941	    -21.74547658
      9.38000000	     26.54553170	     28.93052642	     42.74276650	   -105.67371075	    849.54459089	    -45.22405640	     12.75682819	     33.92682842	     26.82345120	     45.00000000	    -45.00000000	   2430.02515597	   -645.62310252	     21.41270400	   -159.98428986	   1438.16421283	   -201.00449995	     16.73198232	     14.10969347	     -6.36034472	    -45.00000000	    -40.83264503	     45.00000000	    -45.00000000	   4786.50392813	  -5320.00533750	     25.80536235	     27.88910615	    -10.95930524	    396.62836540	     13.98769640	    -21.73201856
      9.39000000	     26.42062383	     29.00382296	     42.93377660	   -104.78072351	    849.42841387	    -45.19314935	     12.85150536	     33.94055998	     26.78302638	     45.00000000	    -45.00000000	   2430.12264533	   -645.65805050	     21.39709827	   -160.13752653	   1438.15043797	   -200.87948513	     16.72988734	     14.08319159	     -6.43786873	    -45.00000000	    -40.87862494	     45.00000000	    -45.00000000	   4786.46369102	  -5319.95861924	     25.79758874	     28.06063902	    -10.93098312	    396.64861572	     14.07264938	    -21.69307313
      9.40000000	     26.39608159	     29.00366559	     43.06802852	   -103.83081408	    849.30408823	    -45.16875752	     12.78958104	     33.93223962	     27.08607659	     45.00000000	    -45.00000000	   2430.10272049	   -645.78107475	     21.31503206	   -160.27095385	   1438.22926386	   -200.78073853	     16.74617491	     14.13341397	     -6.38371614	    -45.00000000	    -40.86234778	     45.00000000	    -45.00000000	   4786.41971481	  -5319.98795989	     25.80788433	     28.18868737	    -10.95040322	    396.65268634	     14.03106906	    -21.66276187
